<?xml version="1.0" encoding="utf-8"?>
<!-- Generator: Adobe Illustrator 16.0.4, SVG Export Plug-In . SVG Version: 6.00 Build 0)  -->
<!DOCTYPE svg PUBLIC "-//W3C//DTD SVG 1.1//EN" "http://www.w3.org/Graphics/SVG/1.1/DTD/svg11.dtd">
<svg version="1.1" id="Layer_1" xmlns="http://www.w3.org/2000/svg" xmlns:xlink="http://www.w3.org/1999/xlink" x="0px" y="0px"
	 width="300px" height="300px" viewBox="0 0 272.863 272.863" enable-background="new 0 0 272.863 272.863"
	 xml:space="preserve">

<!-- Body of stick figure -->
<line fill="none" stroke="#000000" stroke-width="0.8" stroke-miterlimit="10" x1="150" y1="160" x2="150" y2="260"/>

<!-- Legs of stick figure -->
<line fill="none" stroke="#000000" stroke-width="0.8" stroke-miterlimit="10" x1="150" y1="260" x2="120" y2="290"/>
<line fill="none" stroke="#000000" stroke-width="0.8" stroke-miterlimit="10" x1="150" y1="260" x2="180" y2="290"/>

<!-- Arms of stick figure -->
<line fill="none" stroke="#000000" stroke-width="0.8" stroke-miterlimit="10" x1="130" y1="230" x2="150" y2="200"/>
<line fill="none" stroke="#000000" stroke-width="0.8" stroke-miterlimit="10" x1="150" y1="200" x2="170" y2="170"/>

<!-- Head of figure -->
<rect x="110" y="100" fill="#85C1E9" width="80" height="60"/>

<!-- Face of figure -->
<!-- Smile -->
<line fill="none" stroke="#000000" stroke-width="0.8" stroke-miterlimit="10" x1="135" y1="150" x2="165" y2="150"/>
<line fill="none" stroke="#000000" stroke-width="0.8" stroke-miterlimit="10" x1="135" y1="150" x2="115" y2="140"/>
<line fill="none" stroke="#000000" stroke-width="0.8" stroke-miterlimit="10" x1="185" y1="140" x2="165" y2="150"/>
<!-- Eyes -->
<rect x="125" y="110" fill="#FFFFFF" width="20" height="20"/>
<rect x="125" y="120" fill="#000000" width="20" height="10"/>
<rect x="155" y="110" fill="#FFFFFF" width="20" height="20"/>
<rect x="155" y="120" fill="#000000" width="20" height="10"/>

<!-- Mariachi Hat -->
<rect x="80" y="80" fill="#AD1111" width="140" height="20"/>
<rect x="100" y="70" fill="#000000" width="100" height="10"/>
<rect x="110" y="50" fill="#AD1111" width="80" height="20"/>


</svg>